<?xml version="1.0" encoding="UTF-8"?><svg id="Layer_1" xmlns="http://www.w3.org/2000/svg" width="180.076mm" height="95mm" xmlns:xlink="http://www.w3.org/1999/xlink" viewBox="0 0 510.451 269.291"><defs><clipPath id="clippath"><rect x="0" width="510.45" height="269.291" style="fill:none; stroke-width:0px;"/></clipPath><clipPath id="clippath-1"><rect x="0" width="510.45" height="269.291" style="fill:none; stroke-width:0px;"/></clipPath><clipPath id="clippath-2"><rect x="0" width="510.45" height="269.291" style="fill:none; stroke-width:0px;"/></clipPath><clipPath id="clippath-3"><rect x="0" width="510.45" height="269.291" style="fill:none; stroke-width:0px;"/></clipPath><clipPath id="clippath-4"><rect x="0" width="510.45" height="269.291" style="fill:none; stroke-width:0px;"/></clipPath></defs><g style="clip-path:url(#clippath);"><path d="m15.867,196.123h-4.534c-.2.122-.337.18-.41.386v11.992c0,6.48,1.078,8.002,4.612,8.002h1.67c5.78,0,10.723-3.119,10.723-10.27s-5.745-10.11-12.062-10.11m-.938-20.732c-1.063,0-2.321.148-3.267.473-.401.534-.738,2.268-.738,6.323v11.385c.073.215.209.334.41.479h4.203c5.129,0,8.908-2.724,8.908-9.184,0-6.535-4.116-9.477-9.515-9.477m14.787,39.855c-4.116,3.125-8.995,3.517-12.594,3.517H7.598c-3.395,0-5.579.131-7.45.198-.081-.198-.148-.532-.148-.99,0-.337.067-.607.412-.674l2.387-.395c1.804-.34,1.937-1.595,1.937-7.13v-27.191c0-5.533-.134-6.77-1.937-7.104l-2.387-.41c-.346-.076-.412-.325-.412-.665,0-.459.067-.796.148-1.005,1.583.128,4.519.209,6.454.209,3.323,0,6.268-.482,9.265-.482,8.205,0,14.85,3.604,14.85,11.139,0,4.984-3.668,8.597-8.591,10.119v.067c5.269.061,12.457,3.927,12.457,11.455,0,3.869-2.138,7.267-4.868,9.344" style="fill:#575962; stroke-width:0px;"/><path d="m62.286,174.669c-11.066,0-15.327,10.459-15.327,20.107,0,10.267,5.594,22.931,17.249,22.931,11.069,0,15.324-10.529,15.324-20.2,0-10.253-5.591-22.838-17.247-22.838m1.263,45.295c-13.111,0-23.715-10.793-23.715-23.84s9.802-23.726,23.119-23.726c13.116,0,23.706,10.729,23.706,23.77s-9.785,23.796-23.111,23.796" style="fill:#575962; stroke-width:0px;"/><path d="m104.254,180.401h-.142l-6.073,18.371c.07.206.209.279.415.398h12.245c.212-.119.349-.192.415-.398l-6.86-18.371Zm24.691,38.559c-2.509-.067-5.187-.197-7.647-.197s-5.33.131-7.857.197c-.064-.197-.137-.529-.137-.99,0-.337.073-.607.41-.674l1.661-.253c1.455-.276,1.801-.741,1.801-1.551,0-.996-1.136-3.726-1.801-5.524l-2.736-7.331c-.137-.192-.203-.328-.456-.398h-14.932c-.258.07-.325.206-.462.398l-2.466,7.331c-.738,2.207-2.126,6.48,1.397,7.075l1.676.253c.314.067.375.337.375.674,0,.462-.061.793-.131.99-2.652-.067-4.441-.197-6.701-.197-2.155,0-3.872.131-6.398.197-.081-.197-.151-.529-.151-.99,0-.337.07-.607.418-.674l1.507-.395c1.868-.453,3.076-1.656,4.885-6.933l10.581-30.77c.334-.866.537-1.667.537-2.152,0-.244-.078-.517-.131-.787.331-.866,1.243-1.002,2.512-2.135,1.08-.906,1.475-1.853,2.274-1.853.206,0,.404.064.526.128.476,1.801,1.278,4.13,3.267,9.12l11.275,28.449c2.053,5.126,2.994,6.48,4.903,6.933l1.67.395c.328.067.468.337.468.674,0,.462-.058.793-.139.99" style="fill:#575962; stroke-width:0px;"/><path d="m162.586,182.07c-.38,0-.543-.212-.648-.552l-.549-1.856c-.877-3.134-2.202-3.404-8.533-3.404h-4.261c-.314.601-.593,1.873-.593,6.538v26.974c0,5.536.128,6.793,1.934,7.13l2.399.395c.328.067.398.337.398.674,0,.462-.07.793-.137.99-2.585-.067-5.06-.197-7.525-.197s-5.26.131-7.857.197c-.061-.197-.139-.529-.139-.99,0-.337.078-.607.407-.674l2.393-.395c1.798-.337,1.923-1.595,1.923-7.13v-26.974c0-4.926-.325-5.937-.653-6.538h-4.394c-6.587,0-8.135.27-9.01,3.404l-.529,1.856c-.125.34-.267.552-.665.552-.543.049-.924-.084-1.136-.154.212-2.396.593-7.447.543-9.582.209-.064.334-.064.732-.064.331,0,.604.064.68.337.125.459.334.996.717,1.063.86.139,4.394.186,7.996.186h17.386c3.602,0,7.197-.046,8.054-.186.418-.067.601-.604.741-1.063.067-.273.325-.337.662-.337.398,0,.462,0,.665.064-.067,2.135-.067,7.046.125,9.582-.192.07-.607.203-1.127.154" style="fill:#575962; stroke-width:0px;"/><path d="m202.743,174.717c-11.054,0-15.304,10.465-15.304,20.116,0,10.259,5.562,22.919,17.244,22.919,11.043,0,15.301-10.537,15.301-20.192,0-10.244-5.594-22.843-17.241-22.843m1.275,45.298c-13.134,0-23.726-10.799-23.726-23.848s9.791-23.715,23.108-23.715c13.128,0,23.721,10.714,23.721,23.782s-9.791,23.782-23.102,23.782" style="fill:#575962; stroke-width:0px;"/><path d="m234.047,189.235c-.79.343-1.127.206-1.339-.331-.061-.206-.119-.395-.119-.671,2.597-.99,6.451-3.331,6.451-6.599,0-1.391-.866-2.8-2.405-2.8-.468,0-.857.078-1.327.078-1.656,0-2.803-1.269-2.803-2.925,0-2.274,1.804-3.535,3.999-3.535,3.137,0,5.533,2.797,5.533,6.669,0,5.463-3.927,8.458-7.99,10.113" style="fill:#575962; stroke-width:0px;"/><path d="m293.46,216.48c-.148.203-.264.407-.485.534-3.994,1.804-9.434,3-14.908,3-13.86,0-26.172-9.256-26.172-23.918,0-14.792,11.998-23.645,25.643-23.645,4.589,0,10.662.932,14.978,2.724.221.137.459.34.526.537.064,1.792.563,6.131.877,8.205-.203.058-.459.18-.996.18-.407,0-.593,0-.735-.389-1.856-7.392-9.518-8.992-14.453-8.992-11.664,0-18.795,8.054-18.795,19.381,0,12.658,7.726,23.654,20.714,23.654,7.136,0,11.275-3.526,13.082-9.881.122-.372.369-.372.775-.372.546,0,.813.116,1.005.186-.392,2.062-1.005,7.188-1.057,8.795" style="fill:#575962; stroke-width:0px;"/><path d="m314.506,175.451c-1.078,0-2.341.131-3.276.468-.392.529-.717,2.248-.717,6.326v12.832c.052.224.192.282.386.43h4.612c5.922,0,9.852-3.604,9.852-9.532,0-6.59-4.728-10.523-10.857-10.523m27.299,43.564c-1.136-.058-3.66-.195-4.737-.195-2.509,0-3.97.058-5.173.195-4.682-4.403-10.067-12.936-15.007-20.854-.183-.2-.241-.331-.453-.404h-5.536c-.195.128-.334.282-.386.462v11.6c0,5.536.125,6.791,1.917,7.13l2.416.407c.325.07.392.328.392.662,0,.465-.067.802-.142.996-2.591-.058-5.057-.195-7.522-.195s-5.263.137-7.865.195c-.064-.195-.125-.532-.125-.996,0-.334.061-.593.395-.662l2.399-.407c1.812-.34,1.929-1.595,1.929-7.13v-27.18c0-5.516-.116-6.791-1.929-7.125l-2.399-.407c-.334-.067-.395-.334-.395-.653,0-.488.061-.799.125-1.011,2.602.07,4.534.212,7.003.212,3.453,0,6.921-.479,9.936-.479,8.917,0,15.17,4.072,15.17,11.792,0,5.263-4.055,9.132-8.853,11.066q-.07.264,0,.52c2.048,3.282,5.916,8.821,9.521,13.265,3.86,4.792,5.73,7.069,7.993,7.334l1.057.134c.349.07.415.398.415.732,0,.465-.067.802-.145.996" style="fill:#575962; stroke-width:0px;"/><path d="m364.589,180.452h-.131l-6.07,18.382c.067.189.215.258.418.389h12.236c.2-.131.337-.2.41-.389l-6.863-18.382Zm24.714,38.562c-2.536-.058-5.208-.195-7.653-.195-2.472,0-5.33.137-7.865.195-.076-.195-.125-.532-.125-.996,0-.334.049-.593.395-.662l1.664-.267c1.464-.279,1.795-.744,1.795-1.528,0-1.011-1.124-3.75-1.795-5.55l-2.756-7.313c-.102-.203-.186-.337-.453-.412h-14.911c-.282.076-.34.209-.468.412l-2.48,7.313c-.723,2.213-2.114,6.471,1.409,7.078l1.673.267c.322.07.404.328.404.662,0,.465-.081.802-.154.996-2.64-.058-4.455-.195-6.712-.195-2.135,0-3.872.137-6.39.195-.073-.195-.134-.532-.134-.996,0-.334.061-.593.389-.662l1.531-.407c1.879-.468,3.073-1.661,4.865-6.939l10.59-30.778c.349-.839.523-1.65.523-2.109,0-.276-.067-.54-.134-.805.343-.868,1.278-1.008,2.547-2.132,1.069-.924,1.455-1.862,2.257-1.862.206,0,.404.073.549.128.465,1.795,1.258,4.13,3.262,9.12l11.255,28.437c2.065,5.144,2.974,6.471,4.917,6.939l1.676.407c.331.07.465.328.465.662,0,.465-.076.802-.134.996" style="fill:#575962; stroke-width:0px;"/><path d="m408.559,219.014c-2.602-.058-5.068-.195-7.537-.195s-5.257.137-7.862.195c-.073-.195-.125-.532-.125-.996,0-.334.052-.593.401-.662l2.39-.407c1.801-.34,1.937-1.595,1.937-7.13v-27.18c0-5.516-.137-6.791-1.937-7.125l-2.39-.407c-.349-.067-.401-.334-.401-.653,0-.488.052-.799.125-1.011,2.605.07,5.074.212,7.525.212s5.272-.142,7.874-.212c.049.212.122.523.122,1.011,0,.319-.073.587-.401.653l-2.405.407c-1.786.334-1.923,1.609-1.923,7.125v27.18c0,5.536.137,6.791,1.923,7.13l2.405.407c.328.07.401.328.401.662,0,.465-.073.802-.122.996" style="fill:#575962; stroke-width:0px;"/><path d="m458.848,201.035l-1.754.256c-1.719.27-1.85,1.595-1.85,6.262v3c0,3.532.532,4.871.982,5.53-.107.203-.183.473-.372.601-5.135,2.059-11.322,3.331-16.924,3.331-14.392,0-25.919-9.134-25.919-23.918,0-15.048,11.664-23.645,25.449-23.645,6.518,0,12.26,1.127,16.372,2.724.198.137.482.34.543.537.064,1.792.479,6.131.816,8.202-.2.061-.488.18-1.025.18-.389,0-.656-.041-.787-.386-2.271-6.921-9.402-8.992-15.992-8.992-11.658,0-18.31,8.606-18.31,19.712,0,12.669,7.514,23.253,20.107,23.253,3.189,0,6.274-.796,8.591-2.809.203-.648.279-2.045.279-3.538v-2.989c0-6.064-.546-6.451-2.675-6.857l-2.536-.456c-.34-.064-.383-.334-.383-.677,0-.465.044-.793.125-.988,2.605.052,5.068.195,7.522.195s5.396-.142,7.987-.195c.078.195.154.523.154.988,0,.343-.075.613-.401.677" style="fill:#575962; stroke-width:0px;"/><path d="m486.07,174.717c-11.054,0-15.306,10.465-15.306,20.116,0,10.259,5.588,22.919,17.252,22.919,11.06,0,15.309-10.537,15.309-20.192,0-10.244-5.579-22.843-17.255-22.843m1.269,45.298c-13.116,0-23.703-10.799-23.703-23.848s9.782-23.715,23.114-23.715c13.119,0,23.7,10.714,23.7,23.782s-9.782,23.782-23.111,23.782" style="fill:#575962; stroke-width:0px;"/><path d="m257.92,103.375c-3.61,1.159-12.655,3.567-21.606,3.148l-5.992-82.062c1.008,1.261,2.765,2.669,4.999,4.238,3.787,3.09,4.113,6.155,1.722,10.956,5.478-1.368,6.613-5.504,4.453-7.2-1.638-1.168-3.427-5.121-3.427-10.264-.665-5.678-8.176-8.76-8.516-8.914l-.378-4.801c2.222-.674,1.676-1.679,1.676-3.506,0-2.065,0-4.124-2.385-4.804-2.387-.668-3.747.68-3.413,4.458.18,2.024,1.22,3.099,2.036,3.622l3.087,97.517c-7.386-1.656-13.79-6.053-15.745-15.754-.221.168-.778.526-1.014.653-.032-.026-1.653-1.612-3.445-16.056-1.902-15.469-3.43-36.892-3.43-36.892.877-.186,1.368-.453,1.368-.453.604-.241.921-1.287,1.086-1.786,1.034-2.794-3.604-2.225-6.216-1.624-2.541.778-2.759,4.435,0,4.435.471,0,.947-.049,1.356-.087.084.831.372,4.191,1.751,17.918,1.687,15.948,2.152,37.47,2.181,37.81-1.888,1.069-3.224,1.757-3.933,1.9,0,0,3.773,46.593,59.274,41.789-7.191-12.652-10.95-23.648-5.492-34.24" style="fill:#575962; stroke-width:0px;"/><path d="m304.498,84.523c-4.406.5-12.823-6.692-17.276-10.883l.073-.137.09.093,8.925-10.976c1.417,1.734,3.073-.462,4.784-1.722,1.531-1.322.308-5.132-3.427-5.838-3.175-.238-3.082,4.827-3.082,4.827l-10.738,11.409c-3.329,3.14-22.422,21.952-34.592,31.952,1.011,0,8.664-1.554,12.431-2.62-8.211,14.746-1.049,25.707,3.093,33.921,31.17,0,39.393-38.722,39.393-38.722,1.725-4.098,2.03-3.776,5.481-5.106-3.45-.714-4.116-3.448-5.155-6.198" style="fill:#575962; stroke-width:0px;"/><path d="m239.434,104.748l7.528-1.034,17.909-47.395s1.76.151,2.637-2.611c.441-1.435,3.43-2.748,2.062-6.181-1.351-3.436-6.157-1.025-6.866,2.402-.659,3.442.36,5.501.36,5.501l-23.631,49.317Z" style="fill:#575962; stroke-width:0px;"/></g><polygon points="49.781 262.258 48.828 262.258 43.197 248.404 41.259 247.837 41.259 247.419 48.294 247.419 48.294 247.837 46.148 248.282 50.228 259.13 54.251 248.581 52.674 247.837 52.674 247.419 56.993 247.419 56.993 247.837 55.416 248.552 49.781 262.258" style="fill:#575962; stroke-width:0px;"/><polygon points="69.656 261.692 69.656 262.11 62.209 262.11 62.209 261.692 64.559 261.245 64.559 248.282 62.209 247.838 62.209 247.42 69.656 247.42 69.656 247.838 67.301 248.282 67.301 261.245 69.656 261.692" style="fill:#575962; stroke-width:0px;"/><polygon points="77.585 248.464 75.676 247.837 75.676 247.419 80.387 247.419 82.232 249.922 88.282 257.906 88.491 257.906 88.491 248.49 86.527 247.837 86.527 247.419 91.265 247.419 91.265 247.837 89.353 248.49 89.353 262.347 88.192 262.347 86.347 259.786 78.653 249.623 78.45 249.623 78.45 261.035 80.414 261.691 80.414 262.112 75.676 262.112 75.676 261.691 77.585 261.035 77.585 248.464" style="fill:#575962; stroke-width:0px;"/><g style="clip-path:url(#clippath-1);"><path d="m110.184,252.097l-.328.212-1.937-2.565c-.863-1.133-1.281-1.49-2.893-1.49h-2.977v5.96h1.162c1.191,0,1.94-.537,2.353-2.062l.241-.889h.447v6.645h-.447l-.241-.834c-.447-1.522-1.162-2.117-2.353-2.117h-1.162v6.317h3.578c1.484,0,1.873-.328,2.617-1.339l2.149-2.922.325.119-.569,4.978h-13.079v-.418l2.236-.447v-12.965l-2.236-.444v-.415h12.637l.476,4.676Z" style="fill:#575962; stroke-width:0px;"/></g><polygon points="124.633 255.317 124.633 261.245 126.989 261.693 126.989 262.111 119.539 262.111 119.539 261.693 121.894 261.245 121.894 255.823 117.599 248.489 115.548 247.836 115.548 247.42 122.696 247.42 122.696 247.836 120.701 248.402 124.07 254.632 127.378 248.553 125.708 247.836 125.708 247.42 130.654 247.42 130.654 247.836 128.865 248.553 124.633 255.317" style="fill:#575962; stroke-width:0px;"/><path d="m140.426,249.924h-.058l-2.263,6.224h4.557l-2.236-6.224Zm-4.142,11.176l1.757.563v.447h-4.499v-.447l1.638-.627,5.426-13.918h1.458l5.274,14.008,1.908.537v.447h-6.945v-.447l2.175-.418-1.519-4.232h-5.182l-1.493,4.087Z" style="fill:#575962; stroke-width:0px;"/><g style="clip-path:url(#clippath-2);"><path d="m160.779,248.16c-.712,0-1.371.064-1.609.093v6.439h1.461c2.027,0,3.572-1.194,3.572-3.311s-1.545-3.221-3.424-3.221m1.937,6.738v.148c1.76.447,2.475,1.223,3.009,2.538.836,1.995,1.461,2.916,1.821,3.244.561.537,1.014.683,1.783.834v.45h-2.53c-2.024,0-2.416-.775-3.16-2.477l-1.13-2.562c-.627-1.429-1.223-1.699-2.597-1.699h-.744v5.87l2.234.447v.421h-7.206v-.421l2.234-.447v-12.963l-2.234-.444v-.418h7.537c3.575,0,5.394,1.487,5.394,3.726,0,1.905-1.493,3.244-4.412,3.753" style="fill:#575962; stroke-width:0px;"/><path d="m180.982,248.252h-1.844v13.055h2.382c2.951-.032,5.007-1.85,5.007-6.558,0-4.676-2.416-6.468-5.545-6.497m-6.825-.415v-.415h7.305c5.155,0,8.103,3.189,8.103,7.328,0,4.174-3.308,7.363-8.254,7.363h-7.154v-.421l2.236-.447v-12.963l-2.236-.444Z" style="fill:#575962; stroke-width:0px;"/><path d="m201.243,262.557c-1.519,0-2.713-.328-3.575-.744l-.956.807h-.418l-.293-5.274.502-.064c1.731,3.456,3.189,4.621,4.885,4.621,1.821,0,2.98-1.133,2.98-2.623,0-1.818-1.336-2.565-2.948-3.192-.895-.354-1.876-.653-2.739-1.072-1.374-.685-2.446-1.667-2.446-3.575,0-2.768,2.533-4.47,5.065-4.47,1.162,0,2.088.267,2.951.775l.924-.866h.447l.357,4.83-.537.058c-1.757-2.922-2.89-4.081-4.525-4.081-1.464,0-2.538,1.014-2.538,2.408,0,1.464,1.046,2.149,2.385,2.716.866.36,1.847.659,2.771,1.043,1.609.717,2.951,1.731,2.951,3.994,0,2.951-2.652,4.708-5.243,4.708" style="fill:#575962; stroke-width:0px;"/></g><polygon points="226.54 241.217 226.63 255.26 226.54 269.291 227.612 269.291 227.519 255.26 227.612 241.217 226.54 241.217" style="fill:#575962; stroke-width:0px;"/><polygon points="255.384 255.317 255.384 261.245 257.742 261.693 257.742 262.111 250.289 262.111 250.289 261.693 252.642 261.245 252.642 255.823 248.352 248.489 246.296 247.836 246.296 247.42 253.449 247.42 253.449 247.836 251.454 248.402 254.817 254.632 258.128 248.553 256.455 247.836 256.455 247.42 261.405 247.42 261.405 247.836 259.618 248.553 255.384 255.317" style="fill:#575962; stroke-width:0px;"/><path d="m271.179,249.924h-.061l-2.265,6.224h4.563l-2.236-6.224Zm-4.145,11.176l1.754.563v.447h-4.493v-.447l1.635-.627,5.423-13.918h1.464l5.277,14.008,1.905.537v.447h-6.945v-.447l2.175-.418-1.519-4.232h-5.187l-1.49,4.087Z" style="fill:#575962; stroke-width:0px;"/><g style="clip-path:url(#clippath-3);"><path d="m291.529,248.16c-.714,0-1.368.064-1.606.093v6.439h1.461c2.024,0,3.572-1.194,3.572-3.311s-1.548-3.221-3.427-3.221m1.94,6.738v.148c1.757.447,2.472,1.223,3.006,2.538.836,1.995,1.461,2.916,1.818,3.244.566.537,1.017.683,1.789.834v.45h-2.53c-2.03,0-2.414-.775-3.163-2.477l-1.136-2.562c-.622-1.429-1.214-1.699-2.588-1.699h-.744v5.87l2.231.447v.421h-7.209v-.421l2.234-.447v-12.963l-2.234-.444v-.418h7.537c3.578,0,5.399,1.487,5.399,3.726,0,1.905-1.496,3.244-4.412,3.753" style="fill:#575962; stroke-width:0px;"/><path d="m311.495,248.16c-.712,0-1.371.064-1.609.093v6.439h1.458c2.03,0,3.578-1.194,3.578-3.311s-1.548-3.221-3.427-3.221m1.937,6.738v.148c1.757.447,2.475,1.223,3.009,2.538.836,1.995,1.461,2.916,1.821,3.244.563.537,1.011.683,1.783.834v.45h-2.53c-2.027,0-2.416-.775-3.157-2.477l-1.133-2.562c-.624-1.429-1.223-1.699-2.597-1.699h-.744v5.87l2.234.447v.421h-7.209v-.421l2.236-.447v-12.963l-2.236-.444v-.418h7.54c3.575,0,5.394,1.487,5.394,3.726,0,1.905-1.49,3.244-4.412,3.753" style="fill:#575962; stroke-width:0px;"/></g><path d="m330.863,249.924h-.055l-2.268,6.224h4.56l-2.236-6.224Zm-4.139,11.176l1.757.563v.447h-4.499v-.447l1.635-.627,5.428-13.918h1.461l5.274,14.008,1.905.537v.447h-6.942v-.447l2.173-.418-1.519-4.232h-5.187l-1.487,4.087Z" style="fill:#575962; stroke-width:0px;"/><polygon points="363.552 262.258 362.6 262.258 356.968 248.404 355.034 247.837 355.034 247.419 362.065 247.419 362.065 247.837 359.919 248.282 364.003 259.13 368.025 248.581 366.442 247.837 366.442 247.419 370.767 247.419 370.767 247.837 369.19 248.552 363.552 262.258" style="fill:#575962; stroke-width:0px;"/><path d="m380.418,249.924h-.058l-2.268,6.224h4.563l-2.236-6.224Zm-4.142,11.176l1.757.563v.447h-4.499v-.447l1.638-.627,5.423-13.918h1.464l5.274,14.008,1.908.537v.447h-6.944v-.447l2.175-.418-1.522-4.232h-5.182l-1.493,4.087Z" style="fill:#575962; stroke-width:0px;"/><g style="clip-path:url(#clippath-4);"><path d="m406.254,262.112h-12.068v-.418l2.234-.447v-12.965l-2.234-.444v-.415h7.241v.415l-2.265.444v12.936h2.533c1.58,0,1.937-.479,2.681-1.432l2.326-3.006.238.116-.685,5.216Z" style="fill:#575962; stroke-width:0px;"/><path d="m424.999,262.112h-12.071v-.418l2.234-.447v-12.965l-2.234-.444v-.415h7.241v.415l-2.265.444v12.936h2.536c1.577,0,1.937-.479,2.681-1.432l2.324-3.006.241.116-.685,5.216Z" style="fill:#575962; stroke-width:0px;"/><path d="m444.785,252.097l-.325.212-1.937-2.565c-.863-1.133-1.284-1.49-2.893-1.49h-2.983v5.96h1.168c1.191,0,1.934-.537,2.353-2.062l.235-.889h.45v6.645h-.45l-.235-.834c-.447-1.522-1.162-2.117-2.353-2.117h-1.168v6.317h3.578c1.49,0,1.879-.328,2.629-1.339l2.143-2.922.325.119-.563,4.978h-13.085v-.418l2.231-.447v-12.965l-2.231-.444v-.415h12.631l.479,4.676Z" style="fill:#575962; stroke-width:0px;"/></g><polygon points="459.237 255.317 459.237 261.245 461.59 261.693 461.59 262.111 454.137 262.111 454.137 261.693 456.495 261.245 456.495 255.823 452.2 248.489 450.143 247.836 450.143 247.42 457.3 247.42 457.3 247.836 455.301 248.402 458.671 254.632 461.976 248.553 460.309 247.836 460.309 247.42 465.258 247.42 465.258 247.836 463.466 248.553 459.237 255.317" style="fill:#575962; stroke-width:0px;"/></svg>